<svg width="15" height="14" viewBox="0 0 15 14" fill="none" xmlns="http://www.w3.org/2000/svg">
<path fill-rule="evenodd" clip-rule="evenodd" d="M10.262 2.318C10.9201 2.97634 11.3578 3.82257 11.5149 4.74008C11.672 5.6576 11.5406 6.60124 11.139 7.441C10.8482 8.04704 10.4247 8.57987 9.9 9C9.9696 9.32871 10.0031 9.66402 10 10V10.17C10.16 10.06 10.32 9.95 10.47 9.83L14.25 13.5L15 12.84L11.2 9.15C11.7896 8.48334 12.2085 7.68358 12.421 6.81936C12.6334 5.95513 12.633 5.05226 12.4197 4.18825C12.2064 3.32424 11.7866 2.52489 11.1964 1.85881C10.6062 1.19274 9.86315 0.679835 9.03108 0.364132C8.199 0.0484282 7.30275 -0.0606468 6.41924 0.0462694C5.53574 0.153186 4.69137 0.472899 3.95862 0.977968C3.22587 1.48304 2.62663 2.15837 2.21233 2.94601C1.79803 3.73364 1.58104 4.61005 1.58 5.5C1.58 5.768 1.6 6.035 1.64 6.3C1.92716 6.03919 2.24243 5.81112 2.58 5.62V5.5C2.57999 4.60998 2.84391 3.73994 3.33837 2.99991C3.83284 2.25989 4.53565 1.6831 5.35792 1.34251C6.18019 1.00191 7.085 0.912793 7.95792 1.08643C8.83084 1.26007 9.63266 1.68866 10.262 2.318V2.318ZM7.222 6.674C6.78529 6.37892 6.29457 6.17306 5.77805 6.06825C5.26152 5.96343 4.72938 5.96173 4.21219 6.06323C3.69501 6.16474 3.20298 6.36745 2.76439 6.65973C2.3258 6.952 1.94929 7.32807 1.65651 7.76632C1.36373 8.20457 1.16045 8.69636 1.05834 9.21343C0.956233 9.73049 0.957319 10.2626 1.06154 10.7793C1.16575 11.2959 1.37105 11.7869 1.66561 12.2239C1.96018 12.661 2.33822 13.0355 2.778 13.326C3.66017 13.9087 4.73714 14.1184 5.7735 13.9094C6.80986 13.7003 7.7213 13.0895 8.3086 12.2104C8.8959 11.3313 9.11129 10.2554 8.90767 9.21798C8.70406 8.18054 8.09801 7.2659 7.222 6.674V6.674ZM7.122 12.121C6.84337 12.3997 6.51255 12.6208 6.14845 12.7716C5.78435 12.9224 5.3941 13 5 13C4.37696 13.0018 3.76882 12.8096 3.26 12.45L7.45 8.26C7.80957 8.76882 8.0018 9.37696 8 10C7.99983 10.7956 7.68365 11.5585 7.121 12.121H7.122ZM6.74 7.551L2.55 11.74C2.19043 11.2312 1.9982 10.623 2 10C2 9.20435 2.31607 8.44129 2.87868 7.87868C3.44129 7.31607 4.20435 7 5 7C5.62304 6.9982 6.23118 7.19043 6.74 7.55V7.551Z" fill="black"/>
</svg>
